<svg xmlns="http://www.w3.org/2000/svg" xmlns:xlink="http://www.w3.org/1999/xlink" width="700" zoomAndPan="magnify" viewBox="0 0 525 525.000007" height="700" preserveAspectRatio="xMidYMid meet" version="1.0"><defs><clipPath id="id1"><path d="M 0.5 0 L 524.5 0 L 524.5 524 L 0.5 524 Z M 0.5 0 " clip-rule="nonzero"/></clipPath><clipPath id="id2"><path d="M 262.5 0 C 118.035156 0 0.5 117.53125 0.5 262 C 0.5 307.386719 12.113281 350.105469 32.503906 387.367188 C 32.804688 388.152344 33.230469 388.886719 33.765625 389.558594 C 78.628906 469.6875 164.320312 524.003906 262.5 524.003906 C 406.96875 524.003906 524.5 406.472656 524.5 262 C 524.5 117.53125 406.96875 0 262.5 0 Z M 262.5 16.609375 C 397.808594 16.609375 507.890625 126.691406 507.890625 262 C 507.890625 279.371094 506.050781 296.308594 502.601562 312.667969 C 502.566406 312.753906 502.511719 312.832031 502.480469 312.921875 C 490.65625 345.304688 460.398438 367.480469 426.242188 369.402344 C 447.257812 337.472656 458.441406 300.59375 458.441406 262 C 458.441406 153.960938 370.539062 66.0625 262.5 66.0625 C 154.460938 66.0625 66.5625 153.960938 66.5625 262 C 66.5625 285.117188 70.585938 307.691406 78.433594 329.183594 C 64.605469 340.417969 52.101562 353.46875 41.296875 368.1875 C 25.800781 336.035156 17.109375 300.015625 17.109375 262 C 17.109375 126.691406 127.191406 16.609375 262.5 16.609375 Z M 159.394531 288.667969 C 157.15625 279.996094 155.960938 271.0625 155.960938 262 C 155.960938 203.257812 203.757812 155.464844 262.5 155.464844 C 321.246094 155.464844 369.042969 203.257812 369.042969 262 C 369.042969 286.980469 360.277344 310.847656 344.421875 329.941406 C 306.875 299.089844 260.203125 282.285156 211.007812 282.285156 C 193.339844 282.285156 176.039062 284.496094 159.394531 288.667969 Z M 361.0625 344.941406 C 360.683594 344.566406 360.207031 344.390625 359.777344 344.105469 C 359.574219 343.84375 359.476562 343.535156 359.234375 343.296875 C 358.4375 342.507812 357.605469 341.769531 356.800781 340.996094 C 375.375 318.847656 385.652344 291.078125 385.652344 262 C 385.652344 194.097656 330.402344 138.855469 262.5 138.855469 C 194.597656 138.855469 139.351562 194.097656 139.351562 262 C 139.351562 272.65625 140.792969 283.167969 143.472656 293.363281 C 125.3125 299.480469 108.15625 308.082031 92.375 318.859375 C 86.269531 300.59375 83.167969 281.503906 83.167969 262 C 83.167969 163.117188 163.613281 82.671875 262.5 82.671875 C 361.386719 82.671875 441.832031 163.117188 441.832031 262 C 441.832031 300.445312 429.847656 337.09375 407.179688 367.992188 C 407.105469 368.09375 407.058594 368.207031 406.992188 368.308594 C 389.746094 365.410156 373.789062 357.410156 361.0625 344.941406 Z M 337 437.851562 C 337.335938 438.183594 337.761719 438.335938 338.136719 438.601562 C 338.324219 438.828125 338.410156 439.109375 338.625 439.324219 C 355.253906 455.625 377.191406 464.644531 400.453125 464.824219 C 379.089844 479.402344 355.300781 490.644531 329.847656 497.921875 C 329.703125 497.753906 329.644531 497.542969 329.484375 497.382812 C 304.308594 472.429688 270.917969 458.6875 235.46875 458.6875 C 207.242188 458.6875 180.417969 467.410156 157.628906 483.804688 C 135.992188 473.53125 116.09375 460.199219 98.488281 444.347656 C 129.789062 409.78125 174.019531 390.03125 220.808594 390.03125 C 264.621094 390.03125 305.886719 407.015625 337 437.851562 Z M 176.003906 491.609375 C 193.957031 480.953125 214.253906 475.296875 235.46875 475.296875 C 263.230469 475.296875 289.507812 484.980469 310.53125 502.644531 C 294.992188 505.742188 278.9375 507.394531 262.5 507.394531 C 232.0625 507.394531 202.921875 501.78125 176.003906 491.609375 Z M 427.722656 443.273438 C 427.648438 443.300781 427.570312 443.308594 427.496094 443.335938 C 419.109375 446.597656 410.25 448.25 401.160156 448.25 C 382.007812 448.25 363.929688 440.867188 350.25 427.460938 C 349.925781 427.144531 349.511719 427.003906 349.152344 426.75 C 348.972656 426.527344 348.894531 426.257812 348.6875 426.054688 C 314.445312 392.113281 269.027344 373.421875 220.808594 373.421875 C 169.492188 373.421875 120.972656 395.003906 86.542969 432.792969 C 72.515625 418.347656 60.265625 402.191406 50.101562 384.660156 C 86.289062 330.898438 146.015625 298.894531 211.007812 298.894531 C 262.488281 298.894531 310.980469 318.851562 347.546875 355.09375 C 347.9375 355.480469 348.429688 355.671875 348.871094 355.964844 C 349.085938 356.234375 349.1875 356.554688 349.4375 356.800781 C 368.777344 375.757812 394.347656 386.199219 421.433594 386.199219 C 445.355469 386.199219 467.960938 377.792969 485.871094 363.40625 C 471.996094 393.84375 452.136719 421 427.722656 443.273438 Z M 427.722656 443.273438 " clip-rule="nonzero"/></clipPath><linearGradient x1="29.3428" gradientTransform="matrix(5.536031, 0, 0, 5.536031, 0.501812, 0.000019962)" y1="-9.316342" x2="65.310878" gradientUnits="userSpaceOnUse" y2="103.968911" id="id3"><stop stop-opacity="1" stop-color="rgb(100%, 74.099731%, 34.899902%)" offset="0"/><stop stop-opacity="1" stop-color="rgb(100%, 74.099731%, 34.899902%)" offset="0.0625"/><stop stop-opacity="1" stop-color="rgb(100%, 74.099731%, 34.899902%)" offset="0.09375"/><stop stop-opacity="1" stop-color="rgb(100%, 74.020386%, 34.877014%)" offset="0.109375"/><stop stop-opacity="1" stop-color="rgb(100%, 73.780823%, 34.811401%)" offset="0.125"/><stop stop-opacity="1" stop-color="rgb(100%, 73.457336%, 34.7229%)" offset="0.140625"/><stop stop-opacity="1" stop-color="rgb(100%, 73.13385%, 34.635925%)" offset="0.15625"/><stop stop-opacity="1" stop-color="rgb(100%, 72.808838%, 34.547424%)" offset="0.171875"/><stop stop-opacity="1" stop-color="rgb(100%, 72.485352%, 34.458923%)" offset="0.1875"/><stop stop-opacity="1" stop-color="rgb(100%, 72.161865%, 34.370422%)" offset="0.203125"/><stop stop-opacity="1" stop-color="rgb(100%, 71.838379%, 34.281921%)" offset="0.21875"/><stop stop-opacity="1" stop-color="rgb(100%, 71.514893%, 34.19342%)" offset="0.234375"/><stop stop-opacity="1" stop-color="rgb(100%, 71.191406%, 34.104919%)" offset="0.240986"/><stop stop-opacity="1" stop-color="rgb(100%, 71.029663%, 34.060669%)" offset="0.25"/><stop stop-opacity="1" stop-color="rgb(100%, 70.86792%, 34.016418%)" offset="0.265625"/><stop stop-opacity="1" stop-color="rgb(100%, 70.544434%, 33.927917%)" offset="0.28125"/><stop stop-opacity="1" stop-color="rgb(100%, 70.220947%, 33.839417%)" offset="0.296875"/><stop stop-opacity="1" stop-color="rgb(100%, 69.897461%, 33.750916%)" offset="0.3125"/><stop stop-opacity="1" stop-color="rgb(100%, 69.573975%, 33.662415%)" offset="0.328125"/><stop stop-opacity="1" stop-color="rgb(100%, 69.250488%, 33.573914%)" offset="0.34375"/><stop stop-opacity="1" stop-color="rgb(100%, 68.927002%, 33.485413%)" offset="0.359375"/><stop stop-opacity="1" stop-color="rgb(100%, 68.603516%, 33.396912%)" offset="0.375"/><stop stop-opacity="1" stop-color="rgb(100%, 68.278503%, 33.308411%)" offset="0.390625"/><stop stop-opacity="1" stop-color="rgb(100%, 67.955017%, 33.21991%)" offset="0.40625"/><stop stop-opacity="1" stop-color="rgb(100%, 67.631531%, 33.131409%)" offset="0.421875"/><stop stop-opacity="1" stop-color="rgb(100%, 67.308044%, 33.042908%)" offset="0.4375"/><stop stop-opacity="1" stop-color="rgb(100%, 66.984558%, 32.954407%)" offset="0.453125"/><stop stop-opacity="1" stop-color="rgb(100%, 66.661072%, 32.867432%)" offset="0.46875"/><stop stop-opacity="1" stop-color="rgb(100%, 66.337585%, 32.778931%)" offset="0.484375"/><stop stop-opacity="1" stop-color="rgb(100%, 66.014099%, 32.69043%)" offset="0.5"/><stop stop-opacity="1" stop-color="rgb(100%, 65.690613%, 32.601929%)" offset="0.515625"/><stop stop-opacity="1" stop-color="rgb(100%, 65.367126%, 32.513428%)" offset="0.53125"/><stop stop-opacity="1" stop-color="rgb(100%, 65.04364%, 32.424927%)" offset="0.546875"/><stop stop-opacity="1" stop-color="rgb(100%, 64.720154%, 32.336426%)" offset="0.5625"/><stop stop-opacity="1" stop-color="rgb(100%, 64.396667%, 32.247925%)" offset="0.578125"/><stop stop-opacity="1" stop-color="rgb(100%, 64.073181%, 32.159424%)" offset="0.59375"/><stop stop-opacity="1" stop-color="rgb(100%, 63.748169%, 32.070923%)" offset="0.609375"/><stop stop-opacity="1" stop-color="rgb(100%, 63.424683%, 31.982422%)" offset="0.625"/><stop stop-opacity="1" stop-color="rgb(100%, 63.101196%, 31.893921%)" offset="0.640625"/><stop stop-opacity="1" stop-color="rgb(100%, 62.77771%, 31.80542%)" offset="0.65625"/><stop stop-opacity="1" stop-color="rgb(100%, 62.454224%, 31.716919%)" offset="0.671875"/><stop stop-opacity="1" stop-color="rgb(100%, 62.130737%, 31.628418%)" offset="0.6875"/><stop stop-opacity="1" stop-color="rgb(100%, 61.807251%, 31.539917%)" offset="0.703125"/><stop stop-opacity="1" stop-color="rgb(100%, 61.483765%, 31.451416%)" offset="0.71875"/><stop stop-opacity="1" stop-color="rgb(100%, 61.160278%, 31.362915%)" offset="0.734375"/><stop stop-opacity="1" stop-color="rgb(100%, 60.836792%, 31.274414%)" offset="0.75"/><stop stop-opacity="1" stop-color="rgb(100%, 60.513306%, 31.185913%)" offset="0.759014"/><stop stop-opacity="1" stop-color="rgb(100%, 60.351562%, 31.143188%)" offset="0.765625"/><stop stop-opacity="1" stop-color="rgb(100%, 60.189819%, 31.098938%)" offset="0.78125"/><stop stop-opacity="1" stop-color="rgb(100%, 59.866333%, 31.010437%)" offset="0.796875"/><stop stop-opacity="1" stop-color="rgb(100%, 59.542847%, 30.921936%)" offset="0.8125"/><stop stop-opacity="1" stop-color="rgb(100%, 59.217834%, 30.833435%)" offset="0.828125"/><stop stop-opacity="1" stop-color="rgb(100%, 58.894348%, 30.744934%)" offset="0.84375"/><stop stop-opacity="1" stop-color="rgb(100%, 58.570862%, 30.656433%)" offset="0.859375"/><stop stop-opacity="1" stop-color="rgb(100%, 58.247375%, 30.567932%)" offset="0.875"/><stop stop-opacity="1" stop-color="rgb(100%, 57.923889%, 30.479431%)" offset="0.890625"/><stop stop-opacity="1" stop-color="rgb(100%, 57.600403%, 30.39093%)" offset="0.90625"/><stop stop-opacity="1" stop-color="rgb(100%, 57.276917%, 30.302429%)" offset="0.921875"/><stop stop-opacity="1" stop-color="rgb(100%, 57.006836%, 30.227661%)" offset="0.9375"/><stop stop-opacity="1" stop-color="rgb(100%, 56.898499%, 30.198669%)" offset="1"/></linearGradient></defs><g clip-path="url(#id1)"><g clip-path="url(#id2)"><path fill="url(#id3)" d="M 0.5 0 L 0.5 524 L 524.5 524 L 524.5 0 Z M 0.5 0 " fill-rule="nonzero"/></g></g></svg>